# Blender v3.6.10 OBJ File: ''
# www.blender.org
mtllib Finish.mtl
o Finish_Untitled.003
v -0.800000 -0.000000 -0.500000
v -0.800000 0.100000 0.400000
v -0.700000 -0.000000 -0.700000
v -0.700000 0.100000 0.600000
v -0.700000 0.100000 0.400000
v -0.600000 0.000000 0.700000
v -0.600000 0.100000 0.600000
v -0.600000 0.100000 -0.800000
v -0.400000 0.000000 0.800000
v -0.400000 0.100000 0.700000
v 0.500000 0.000000 0.800000
v 0.500000 0.000000 0.700000
v 0.500000 -0.000000 -0.800000
v 0.500000 0.100000 0.700000
v 0.700000 0.000000 0.600000
v 0.700000 -0.000000 -0.700000
v 0.700000 -0.000000 -0.800000
v 0.700000 0.100000 0.700000
v 0.800000 0.100000 -0.700000
v 0.900000 0.100000 0.400000
v -0.400000 0.100000 0.800000
v -0.400000 0.000000 0.700000
v 0.700000 0.000000 0.700000
v -0.700000 0.000000 0.600000
v -0.600000 0.000000 0.600000
v 0.800000 0.000000 0.600000
v 0.800000 0.100000 0.600000
v -0.800000 0.100000 -0.500000
v -0.700000 -0.000000 -0.500000
v -0.700000 0.100000 -0.500000
v 0.800000 -0.000000 -0.500000
v 0.900000 -0.000000 -0.500000
v -0.600000 -0.000000 -0.700000
v -0.600000 -0.000000 -0.800000
v -0.400000 -0.000000 -0.800000
v -0.400000 0.100000 -0.900000
v -0.800000 0.000000 0.400000
v -0.700000 0.000000 0.400000
v 0.800000 0.000000 0.400000
v 0.900000 0.000000 0.400000
v 0.800000 -0.000000 -0.700000
v -0.400000 -0.000000 -0.900000
v 0.500000 -0.000000 -0.900000
v 0.500000 0.100000 0.800000
v -0.600000 0.100000 0.700000
v 0.700000 0.100000 0.600000
v 0.800000 0.100000 0.400000
v 0.800000 0.100000 -0.500000
v 0.900000 0.100000 -0.500000
v -0.700000 0.100000 -0.700000
v -0.600000 0.100000 -0.700000
v 0.700000 0.100000 -0.700000
v -0.400000 0.100000 -0.800000
v 0.500000 0.100000 -0.800000
v 0.700000 0.100000 -0.800000
v 0.500000 0.100000 -0.900000
vt 0.228571 0.571428
vt 0.257143 0.542857
vt 0.257143 0.571428
vt 0.371429 0.457143
vt 0.114286 0.028571
vt 0.371429 0.028571
vt 0.085714 0.571428
vt 0.057143 0.542857
vt 0.057143 0.571428
vt 0.400000 0.514286
vt 0.428571 0.542857
vt 0.428571 0.514286
vt 0.228571 0.514286
vt 0.200000 0.571429
vt 0.200000 0.514286
vt 0.285714 0.542857
vt 0.314286 0.571428
vt 0.314286 0.542857
vt 0.342857 0.514286
vt 0.371428 0.542857
vt 0.371428 0.514286
vt 0.171429 0.514286
vt 0.200000 0.571429
vt 0.200000 0.514286
vt 0.057143 0.514286
vt 0.028571 0.571429
vt 0.028571 0.514286
vt 0.400000 0.514286
vt 0.371428 0.542857
vt 0.371428 0.514286
vt 0.285714 0.571428
vt 0.257143 0.542857
vt 0.257143 0.571428
vt 0.485714 0.542857
vt 0.514286 0.514286
vt 0.514286 0.542857
vt 0.342857 0.542857
vt 0.285714 0.514286
vt 0.285714 0.542857
vt 0.571429 0.485714
vt 0.542857 0.742857
vt 0.542857 0.485714
vt 0.457143 0.514286
vt 0.428571 0.542857
vt 0.428571 0.514286
vt 0.114286 0.571428
vt 0.085714 0.542857
vt 0.085714 0.571428
vt 0.171429 0.542857
vt 0.114286 0.514286
vt 0.114286 0.542857
vt 0.171429 0.542857
vt 0.142857 0.571428
vt 0.142857 0.542857
vt 0.371428 0.571428
vt 0.342857 0.542857
vt 0.342857 0.571428
vt 0.457143 0.542857
vt 0.485714 0.514286
vt 0.485714 0.542857
vt 0.942857 0.371429
vt 0.514286 0.114286
vt 0.514286 0.371429
vt 0.342857 0.542857
vt 0.314286 0.571428
vt 0.314286 0.542857
vt 0.114286 0.542857
vt 0.142857 0.571428
vt 0.142857 0.542857
vt 0.228571 0.542857
vt 0.285714 0.514286
vt 0.285714 0.542857
vt 0.057143 0.542857
vt 0.114286 0.514286
vt 0.114286 0.542857
vt 0.000000 0.514286
vt 0.257143 0.485714
vt 0.257143 0.514286
vt 0.514286 0.485714
vt 0.542857 0.742857
vt 0.542857 0.485714
vt 0.371428 0.571429
vt 0.400000 0.542857
vt 0.400000 0.571429
vt 0.000000 0.514286
vt 0.028571 0.571429
vt 0.028571 0.514286
vt 0.514286 0.514286
vt 0.257143 0.485714
vt 0.257143 0.514286
vt 0.228571 0.542857
vt 0.371429 0.485714
vt 0.114286 0.485714
vt 0.114286 0.457143
vt 0.057143 0.457143
vt 0.057143 0.428571
vt 0.428571 0.428571
vt 0.428571 0.457143
vt 0.457143 0.371429
vt 0.457143 0.428571
vt 0.485714 0.114286
vt 0.485714 0.371429
vt 0.428571 0.057143
vt 0.457143 0.057143
vt 0.457143 0.114286
vt 0.028571 0.371429
vt 0.028571 0.428571
vt 0.000000 0.371429
vt 0.000000 0.114286
vt 0.028571 0.114286
vt 0.028571 0.057143
vt 0.057143 0.057143
vt 0.428571 0.028571
vt 0.057143 0.028571
vt 0.114286 0.000000
vt 0.371429 0.000000
vt 0.085714 0.542857
vt 0.400000 0.542857
vt 0.228571 0.571429
vt 0.285714 0.571428
vt 0.342857 0.542857
vt 0.171429 0.571429
vt 0.057143 0.571429
vt 0.400000 0.542857
vt 0.285714 0.542857
vt 0.485714 0.514286
vt 0.342857 0.514286
vt 0.571429 0.742857
vt 0.457143 0.542857
vt 0.114286 0.542857
vt 0.171429 0.514286
vt 0.171429 0.571428
vt 0.371428 0.542857
vt 0.457143 0.514286
vt 0.971429 0.371429
vt 0.971429 0.114286
vt 0.942857 0.114286
vt 0.942857 0.057143
vt 0.914286 0.057143
vt 0.914286 0.428571
vt 0.942857 0.428571
vt 0.857143 0.457143
vt 0.914286 0.457143
vt 0.600000 0.485714
vt 0.857143 0.485714
vt 0.542857 0.428571
vt 0.542857 0.457143
vt 0.600000 0.457143
vt 0.857143 0.028571
vt 0.914286 0.028571
vt 0.857143 0.000000
vt 0.600000 0.000000
vt 0.600000 0.028571
vt 0.542857 0.028571
vt 0.542857 0.057143
vt 0.514286 0.428571
vt 0.514286 0.057143
vt 0.485714 0.114286
vt 0.485714 0.371429
vt 0.342857 0.571428
vt 0.114286 0.571428
vt 0.228571 0.514286
vt 0.057143 0.514286
vt 0.000000 0.485714
vt 0.514286 0.742857
vt 0.371428 0.542857
vt 0.000000 0.571429
vt 0.514286 0.485714
vn 0.0000 0.0000 1.0000
vn 0.0000 -1.0000 0.0000
vn 0.0000 0.0000 -1.0000
vn -1.0000 0.0000 0.0000
vn 1.0000 0.0000 0.0000
vn 0.0000 1.0000 -0.0000
usemtl Finish_Material
s off
f 4/1/1 25/2/1 7/3/1
f 12/4/2 35/5/2 13/6/2
f 30/7/3 1/8/3 28/9/3
f 34/10/4 51/11/4 8/12/4
f 19/13/5 31/14/5 41/15/5
f 25/16/4 45/17/4 7/18/4
f 22/19/4 21/20/4 10/21/4
f 3/22/4 30/23/4 50/24/4
f 47/25/5 26/26/5 39/27/5
f 14/28/5 11/29/5 12/30/5
f 51/31/3 3/32/3 50/33/3
f 2/34/1 38/35/1 5/36/1
f 55/37/3 13/38/3 54/39/3
f 49/40/5 40/41/5 32/42/5
f 55/43/5 16/44/5 17/45/5
f 19/46/3 16/47/3 52/48/3
f 53/49/3 34/50/3 8/51/3
f 56/52/5 13/53/5 43/54/5
f 49/55/3 31/56/3 48/57/3
f 46/58/1 26/59/1 27/60/1
f 47/61/6 30/62/6 5/63/6
f 46/64/5 23/65/5 15/66/5
f 42/67/4 53/68/4 36/69/4
f 14/70/1 23/71/1 18/72/1
f 45/73/1 22/74/1 10/75/1
f 21/76/1 11/77/1 44/78/1
f 1/79/4 2/80/4 28/81/4
f 47/82/1 40/83/1 20/84/1
f 38/85/4 4/86/4 5/87/4
f 56/88/3 42/89/3 36/90/3
f 4/1/1 24/91/1 25/2/1
f 12/4/2 11/92/2 9/93/2
f 22/94/2 6/95/2 25/96/2
f 12/4/2 9/93/2 22/94/2
f 15/97/2 23/98/2 12/4/2
f 39/99/2 26/100/2 15/97/2
f 32/101/2 40/102/2 39/99/2
f 16/103/2 41/104/2 31/105/2
f 31/105/2 32/101/2 39/99/2
f 39/99/2 15/97/2 12/4/2
f 12/4/2 22/94/2 38/106/2
f 22/94/2 25/96/2 38/106/2
f 25/96/2 24/107/2 38/106/2
f 38/106/2 37/108/2 1/109/2
f 29/110/2 3/111/2 33/112/2
f 38/106/2 1/109/2 29/110/2
f 31/105/2 39/99/2 12/4/2
f 13/6/2 17/113/2 16/103/2
f 16/103/2 31/105/2 13/6/2
f 31/105/2 12/4/2 13/6/2
f 12/4/2 38/106/2 29/110/2
f 33/112/2 34/114/2 35/5/2
f 12/4/2 29/110/2 35/5/2
f 29/110/2 33/112/2 35/5/2
f 42/115/2 43/116/2 13/6/2
f 35/5/2 42/115/2 13/6/2
f 30/7/3 29/117/3 1/8/3
f 34/10/4 33/118/4 51/11/4
f 19/13/5 48/119/5 31/14/5
f 25/16/4 6/120/4 45/17/4
f 22/19/4 9/121/4 21/20/4
f 3/22/4 29/122/4 30/23/4
f 47/25/5 27/123/5 26/26/5
f 14/28/5 44/124/5 11/29/5
f 51/31/3 33/125/3 3/32/3
f 2/34/1 37/126/1 38/35/1
f 55/37/3 17/127/3 13/38/3
f 49/40/5 20/128/5 40/41/5
f 55/43/5 52/129/5 16/44/5
f 19/46/3 41/130/3 16/47/3
f 53/49/3 35/131/3 34/50/3
f 56/52/5 54/132/5 13/53/5
f 49/55/3 32/133/3 31/56/3
f 46/58/1 15/134/1 26/59/1
f 47/61/6 20/135/6 49/136/6
f 48/137/6 19/138/6 52/139/6
f 47/61/6 49/136/6 48/137/6
f 46/140/6 27/141/6 47/61/6
f 14/142/6 18/143/6 46/140/6
f 21/144/6 44/145/6 14/142/6
f 7/146/6 45/147/6 10/148/6
f 10/148/6 21/144/6 14/142/6
f 14/142/6 46/140/6 47/61/6
f 47/61/6 48/137/6 54/149/6
f 48/137/6 52/139/6 54/149/6
f 52/139/6 55/150/6 54/149/6
f 54/149/6 56/151/6 36/152/6
f 53/153/6 8/154/6 51/155/6
f 54/149/6 36/152/6 53/153/6
f 10/148/6 14/142/6 47/61/6
f 5/63/6 4/156/6 7/146/6
f 7/146/6 10/148/6 5/63/6
f 10/148/6 47/61/6 5/63/6
f 47/61/6 54/149/6 53/153/6
f 51/155/6 50/157/6 30/62/6
f 47/61/6 53/153/6 30/62/6
f 53/153/6 51/155/6 30/62/6
f 28/158/6 2/159/6 5/63/6
f 30/62/6 28/158/6 5/63/6
f 46/64/5 18/160/5 23/65/5
f 42/67/4 35/161/4 53/68/4
f 14/70/1 12/162/1 23/71/1
f 45/73/1 6/163/1 22/74/1
f 21/76/1 9/164/1 11/77/1
f 1/79/4 37/165/4 2/80/4
f 47/82/1 39/166/1 40/83/1
f 38/85/4 24/167/4 4/86/4
f 56/88/3 43/168/3 42/89/3
