# Blender v3.6.10 OBJ File: ''
# www.blender.org
mtllib Grass.mtl
o Grass_Untitled.007
v -1.000000 0.200000 0.900000
v -1.000000 0.200000 -1.000000
v -1.000000 0.200000 -1.100000
v -1.000000 1.900000 0.800000
v -0.900000 0.000000 0.900000
v -0.900000 0.200000 1.000000
v -0.900000 0.200000 -1.000000
v -0.900000 1.700000 0.900000
v -0.900000 1.900000 0.900000
v -0.900000 1.900000 0.800000
v -0.900000 2.000000 0.700000
v -0.900000 2.000000 -0.800000
v -0.900000 2.100000 -0.800000
v -0.800000 1.900000 1.000000
v -0.800000 2.000000 0.900000
v -0.800000 2.000000 0.700000
v -0.800000 2.000000 -1.100000
v -0.700000 2.000000 0.800000
v -0.700000 2.000000 -0.900000
v 0.800000 2.000000 0.900000
v 0.800000 2.000000 -0.900000
v 0.800000 2.000000 -1.000000
v 0.800000 2.100000 -0.900000
v 0.800000 2.100000 -1.000000
v 0.900000 1.900000 0.900000
v 0.900000 1.900000 -1.100000
v 0.900000 2.000000 0.900000
v 0.900000 2.000000 0.700000
v 0.900000 2.000000 -0.800000
v 0.900000 2.000000 -0.900000
v 0.900000 2.000000 -1.000000
v 0.900000 2.000000 -1.100000
v 1.000000 0.000000 1.000000
v 1.000000 -0.000000 -1.000000
v 1.000000 -0.000000 -1.100000
v 1.000000 0.200000 1.000000
v 1.000000 1.700000 0.900000
v 1.000000 1.700000 -1.000000
v 1.000000 1.900000 -0.900000
v 1.000000 2.000000 0.700000
v 1.000000 2.000000 -0.800000
v 1.100000 0.000000 0.900000
v 1.100000 -0.000000 -1.000000
v 1.100000 0.200000 1.000000
v 1.100000 0.200000 -1.100000
v 1.100000 1.700000 0.900000
v 1.100000 1.900000 -1.000000
v 1.100000 2.000000 0.800000
v 1.100000 2.000000 -0.900000
v -0.900000 1.700000 1.000000
v -0.900000 1.900000 1.000000
v -0.800000 2.000000 1.000000
v 0.900000 1.900000 1.000000
v 0.900000 2.000000 1.000000
v 1.000000 1.700000 1.000000
v 1.100000 1.700000 1.000000
v -1.000000 0.000000 0.900000
v -0.900000 0.200000 0.900000
v -0.700000 2.000000 0.900000
v 0.800000 2.100000 0.900000
v 1.000000 0.000000 0.900000
v 1.000000 0.200000 0.900000
v 1.000000 2.000000 0.900000
v 1.100000 0.200000 0.900000
v -1.000000 2.000000 0.800000
v -0.800000 2.000000 0.800000
v 0.800000 2.000000 0.800000
v 0.800000 2.100000 0.800000
v 0.900000 2.000000 0.800000
v 0.900000 2.100000 0.800000
v 1.000000 2.000000 0.800000
v -0.900000 2.100000 0.700000
v 0.900000 2.100000 0.700000
v 1.000000 2.100000 0.700000
v -0.800000 2.000000 -0.800000
v 1.000000 2.100000 -0.800000
v -1.000000 2.000000 -0.900000
v -0.900000 2.000000 -0.900000
v -0.800000 2.000000 -0.900000
v 1.000000 2.000000 -0.900000
v -1.000000 1.700000 -1.000000
v -0.900000 -0.000000 -1.000000
v -0.900000 2.000000 -1.000000
v 0.900000 1.900000 -1.000000
v 1.000000 0.200000 -1.000000
v 1.000000 1.900000 -1.000000
v 1.000000 2.000000 -1.000000
v 1.100000 0.200000 -1.000000
v 1.100000 1.700000 -1.000000
v -0.800000 1.900000 -1.100000
v 1.000000 0.200000 -1.100000
v 1.000000 1.700000 -1.100000
v 1.000000 1.900000 -1.100000
v -0.900000 0.000000 1.000000
v -1.000000 -0.000000 -1.000000
v -0.900000 -0.000000 -1.100000
v -1.000000 0.200000 1.000000
v -0.900000 0.200000 -1.100000
v -1.000000 1.700000 1.000000
v -1.000000 1.700000 0.900000
v -0.900000 1.700000 -1.000000
v -1.000000 1.700000 -1.100000
v -0.900000 1.700000 -1.100000
v 1.100000 1.700000 -1.100000
v 1.000000 1.900000 1.000000
v -1.000000 1.900000 0.900000
v -0.800000 1.900000 0.900000
v 1.000000 1.900000 0.900000
v 1.100000 1.900000 0.900000
v 1.000000 1.900000 0.800000
v 1.100000 1.900000 0.800000
v -1.000000 1.900000 -0.900000
v -0.900000 1.900000 -0.900000
v 1.100000 1.900000 -0.900000
v -1.000000 1.900000 -1.000000
v -0.900000 1.900000 -1.000000
v -0.800000 1.900000 -1.000000
v -0.900000 1.900000 -1.100000
v -0.900000 2.000000 0.900000
v -0.900000 2.000000 0.800000
v -0.800000 2.000000 -1.000000
v -0.700000 2.000000 -1.000000
v -0.700000 2.100000 0.900000
v -0.800000 2.100000 0.800000
v -0.700000 2.100000 0.800000
v -0.800000 2.100000 0.700000
v -0.800000 2.100000 -0.800000
v 0.900000 2.100000 -0.800000
v -0.800000 2.100000 -0.900000
v -0.700000 2.100000 -0.900000
v 0.900000 2.100000 -0.900000
v -0.700000 2.100000 -1.000000
vt 0.555555 0.698413
vt 0.539683 0.714286
vt 0.555555 0.714286
vt 0.539683 0.714286
vt 0.523809 0.698413
vt 0.539683 0.698413
vt 0.603175 0.317460
vt 0.634921 0.301587
vt 0.634921 0.031746
vt 0.460317 0.698413
vt 0.492063 0.714286
vt 0.492063 0.698413
vt 0.920635 0.333333
vt 0.682540 0.333333
vt 0.666667 0.587301
vt 0.460317 0.698413
vt 0.428571 0.714286
vt 0.428571 0.698413
vt 0.396825 0.714286
vt 0.380952 0.730159
vt 0.380952 0.714286
vt 0.571429 0.666667
vt 0.333333 0.682540
vt 0.333333 0.666667
vt 0.317460 0.015873
vt 0.015873 0.317460
vt 0.015873 0.015873
vt 0.603175 0.698413
vt 0.587302 0.666667
vt 0.587302 0.698413
vt 0.730159 0.650794
vt 0.714286 0.666667
vt 0.714286 0.650794
vt 0.714286 0.619048
vt 0.730159 0.634921
vt 0.730159 0.619048
vt 0.285714 0.650794
vt 0.047619 0.650794
vt 0.031746 0.666667
vt 0.634921 0.682540
vt 0.603175 0.698413
vt 0.603175 0.682540
vt 0.682540 0.730159
vt 0.698413 0.714286
vt 0.698413 0.730159
vt 0.666667 0.619047
vt 0.682540 0.857143
vt 0.666667 0.857143
vt 0.968254 0.269841
vt 0.968254 0.031746
vt 0.666667 0.269841
vt 0.571429 0.698413
vt 0.587302 0.666667
vt 0.587302 0.698413
vt 0.619048 0.698413
vt 0.603175 0.714286
vt 0.619048 0.714286
vt 0.476190 0.730159
vt 0.492063 0.714286
vt 0.492063 0.730159
vt 0.698413 0.619048
vt 0.682540 0.650794
vt 0.682540 0.619048
vt 0.714286 0.682540
vt 0.698413 0.650794
vt 0.714286 0.650794
vt 0.380952 0.746032
vt 0.396825 0.730159
vt 0.396825 0.746032
vt 0.460317 0.746032
vt 0.476190 0.730159
vt 0.476190 0.746032
vt 0.714286 0.698413
vt 0.730159 0.682540
vt 0.730159 0.698413
vt 0.460317 0.730159
vt 0.476190 0.714286
vt 0.476190 0.730159
vt 0.349206 0.714286
vt 0.365079 0.730159
vt 0.365079 0.714286
vt 0.349206 0.730159
vt 0.365079 0.746032
vt 0.365079 0.730159
vt 0.428571 0.730159
vt 0.412698 0.746032
vt 0.428571 0.746032
vt 0.412698 0.730159
vt 0.396825 0.714286
vt 0.412698 0.714286
vt 0.666667 0.857143
vt 0.650794 0.619047
vt 0.650794 0.857143
vt 0.603175 0.666667
vt 0.634921 0.682540
vt 0.634921 0.666667
vt 0.714286 0.730159
vt 0.698413 0.714286
vt 0.698413 0.730159
vt 0.492063 0.746032
vt 0.476190 0.730159
vt 0.476190 0.746032
vt 0.714286 0.698413
vt 0.698413 0.698413
vt 0.380952 0.730159
vt 0.365079 0.746032
vt 0.365079 0.730159
vt 0.682540 0.714286
vt 0.698413 0.682540
vt 0.682540 0.682540
vt 0.714286 0.682540
vt 0.730159 0.666667
vt 0.730159 0.682540
vt 0.603175 0.714286
vt 0.619048 0.730159
vt 0.619048 0.714286
vt 0.380952 0.714286
vt 0.365079 0.730159
vt 0.365079 0.714286
vt 0.333333 0.698413
vt 0.365079 0.714286
vt 0.365079 0.698413
vt 0.428571 0.714286
vt 0.412698 0.730159
vt 0.428571 0.730159
vt 0.730159 0.730159
vt 0.714286 0.714286
vt 0.714286 0.730159
vt 0.444444 0.714286
vt 0.428571 0.730159
vt 0.444444 0.730159
vt 0.317460 0.936508
vt 0.301587 0.968254
vt 0.031746 0.968254
vt 0.555555 0.714286
vt 0.539683 0.730159
vt 0.555555 0.730159
vt 0.698413 0.682540
vt 0.714286 0.698413
vt 0.714286 0.682540
vt 0.539682 0.730159
vt 0.523809 0.714286
vt 0.539682 0.714286
vt 0.460317 0.714286
vt 0.444444 0.730159
vt 0.460317 0.730159
vt 0.730159 0.714286
vt 0.714286 0.698413
vt 0.714286 0.714286
vt 0.031746 0.365079
vt 0.015873 0.365079
vt 0.031746 0.380952
vt 0.634921 0.698413
vt 0.619048 0.714286
vt 0.634921 0.714286
vt 0.603175 0.714286
vt 0.587302 0.730159
vt 0.603175 0.730159
vt 0.349206 0.730159
vt 0.333333 0.746032
vt 0.349206 0.746032
vt 0.634921 0.698413
vt 0.650794 0.666667
vt 0.650794 0.698413
vt 0.587302 0.714286
vt 0.571429 0.698413
vt 0.571429 0.714286
vt 0.698413 0.682540
vt 0.682540 0.650794
vt 0.682540 0.682540
vt 0.714286 0.650794
vt 0.698413 0.619048
vt 0.698413 0.650794
vt 0.603175 0.714286
vt 0.587302 0.698413
vt 0.603175 0.698413
vt 0.333333 0.682540
vt 0.571429 0.698413
vt 0.571429 0.682540
vt 0.555556 0.714286
vt 0.571429 0.698413
vt 0.571429 0.714286
vt 0.730159 0.634921
vt 0.714286 0.650794
vt 0.714286 0.634921
vt 0.650794 0.714286
vt 0.634921 0.730159
vt 0.634921 0.714286
vt 0.333333 0.714286
vt 0.349206 0.730159
vt 0.349206 0.714286
vt 0.428571 0.698413
vt 0.396825 0.714286
vt 0.396825 0.698413
vt 0.619048 0.714286
vt 0.634921 0.730159
vt 0.634921 0.714286
vt 0.523809 0.730159
vt 0.507936 0.714286
vt 0.507936 0.730159
vt 0.460317 0.730159
vt 0.444444 0.746032
vt 0.444444 0.730159
vt 0.587302 0.714286
vt 0.571429 0.730159
vt 0.587302 0.730159
vt 0.603175 0.650794
vt 0.365079 0.650794
vt 0.603175 0.349206
vt 0.365079 0.698413
vt 0.396825 0.714286
vt 0.396825 0.698413
vt 0.523809 0.698413
vt 0.492063 0.714286
vt 0.492063 0.698413
vt 0.412698 0.746032
vt 0.396825 0.730159
vt 0.396825 0.746032
vt 0.571428 0.714286
vt 0.555555 0.730159
vt 0.571428 0.730159
vt 0.428571 0.730159
vt 0.444444 0.746032
vt 0.444444 0.730159
vt 0.507936 0.730159
vt 0.492063 0.714286
vt 0.492063 0.730159
vt 0.539683 0.698413
vt 0.523809 0.714286
vt 0.634921 0.015873
vt 0.603175 0.015873
vt 0.603175 -0.000000
vt 0.365079 -0.000000
vt 0.365079 0.015873
vt 0.333333 0.015873
vt 0.333333 0.317460
vt 0.650794 0.301587
vt 0.650794 0.031746
vt 0.365079 0.317460
vt 0.365079 0.333333
vt 0.603175 0.333333
vt 0.634921 0.317460
vt 0.460317 0.714286
vt 0.936508 0.587301
vt 0.952381 0.587301
vt 0.952381 0.349206
vt 0.936508 0.349206
vt 0.936508 0.333333
vt 0.920635 0.603175
vt 0.936508 0.603175
vt 0.682540 0.619048
vt 0.920635 0.619048
vt 0.666667 0.603175
vt 0.682540 0.603175
vt 0.920635 0.317460
vt 0.682540 0.317460
vt 0.650794 0.349206
vt 0.650794 0.587301
vt 0.666667 0.333333
vt 0.666667 0.349206
vt 0.460317 0.714286
vt 0.396825 0.730159
vt 0.571429 0.682540
vt 0.333333 0.015873
vt 0.333333 0.317460
vt 0.317460 0.317460
vt 0.317460 0.333333
vt 0.015873 0.333333
vt 0.015873 -0.000000
vt 0.317460 -0.000000
vt -0.000000 0.317460
vt -0.000000 0.015873
vt 0.603175 0.666667
vt 0.730159 0.666667
vt 0.714286 0.634921
vt 0.031746 0.349206
vt 0.047619 0.365079
vt 0.047619 0.349206
vt 0.301587 0.333333
vt 0.031746 0.333333
vt 0.317460 0.365079
vt 0.317460 0.349206
vt 0.301587 0.349206
vt 0.285714 0.349206
vt 0.285714 0.365079
vt 0.301587 0.365079
vt 0.301587 0.380952
vt 0.317460 0.380952
vt 0.333333 0.634921
vt 0.333333 0.365079
vt 0.301587 0.650794
vt 0.317460 0.650794
vt 0.317460 0.634921
vt 0.301587 0.666667
vt 0.015873 0.634921
vt 0.015873 0.650794
vt 0.031746 0.650794
vt 0.317460 0.619048
vt 0.301587 0.619048
vt 0.301587 0.634921
vt 0.285714 0.634921
vt -0.000000 0.365079
vt -0.000000 0.634921
vt 0.015873 0.619048
vt 0.015873 0.380952
vt 0.031746 0.634921
vt 0.031746 0.619048
vt 0.047619 0.634921
vt 0.634921 0.698413
vt 0.682540 0.714286
vt 0.682540 0.619047
vt 0.682540 0.301587
vt 0.682540 0.317460
vt 0.952381 0.317460
vt 0.952381 0.301587
vt 0.968254 0.301587
vt 0.666667 0.301587
vt 0.650794 0.031746
vt 0.650794 0.269841
vt 0.968254 0.000000
vt 0.666667 0.000000
vt 0.666667 0.031746
vt 0.984127 0.269841
vt 0.984127 0.031746
vt 0.571429 0.666667
vt 0.603175 0.698413
vt 0.476190 0.714286
vt 0.698413 0.650794
vt 0.698413 0.682540
vt 0.380952 0.730159
vt 0.460317 0.730159
vt 0.714286 0.682540
vt 0.460317 0.714286
vt 0.349206 0.730159
vt 0.349206 0.746032
vt 0.412698 0.730159
vt 0.396825 0.730159
vt 0.666667 0.619047
vt 0.603175 0.682540
vt 0.714286 0.714286
vt 0.492063 0.730159
vt 0.714286 0.714286
vt 0.380952 0.746032
vt 0.698413 0.714286
vt 0.714286 0.666667
vt 0.603175 0.730159
vt 0.380952 0.730159
vt 0.333333 0.714286
vt 0.412698 0.714286
vt 0.730159 0.714286
vt 0.428571 0.714286
vt -0.000000 0.936508
vt -0.000000 0.698413
vt 0.015873 0.698413
vt 0.015873 0.666667
vt 0.317460 0.666667
vt 0.317460 0.698413
vt 0.333333 0.698413
vt 0.333333 0.936508
vt 0.015873 0.936508
vt 0.015873 0.968254
vt 0.301587 0.984127
vt 0.031746 0.984127
vt 0.317460 0.968254
vt 0.539683 0.714286
vt 0.698413 0.698413
vt 0.523809 0.730159
vt 0.444444 0.714286
vt 0.730159 0.698413
vt 0.015873 0.349206
vt 0.619048 0.698413
vt 0.587302 0.714286
vt 0.333333 0.730159
vt 0.634921 0.666667
vt 0.587302 0.698413
vt 0.698413 0.650794
vt 0.714286 0.619048
vt 0.587302 0.714286
vt 0.333333 0.698413
vt 0.555556 0.698413
vt 0.730159 0.650794
vt 0.650794 0.730159
vt 0.333333 0.730159
vt 0.428571 0.714286
vt 0.619048 0.730159
vt 0.523809 0.714286
vt 0.460317 0.746032
vt 0.571429 0.714286
vt 0.634921 0.365079
vt 0.650794 0.365079
vt 0.650794 0.634921
vt 0.634921 0.634921
vt 0.634921 0.650794
vt 0.634921 0.349206
vt 0.365079 0.333333
vt 0.603175 0.333333
vt 0.333333 0.650794
vt 0.333333 0.349206
vt 0.365079 0.349206
vt 0.603175 0.666667
vt 0.365079 0.666667
vt 0.365079 0.714286
vt 0.523809 0.714286
vt 0.412698 0.730159
vt 0.555555 0.714286
vt 0.428571 0.746032
vt 0.507936 0.714286
vn 0.0000 1.0000 0.0000
vn 0.0000 -1.0000 0.0000
vn -1.0000 0.0000 0.0000
vn 1.0000 0.0000 0.0000
vn 0.0000 0.0000 1.0000
vn 0.0000 0.0000 -1.0000
usemtl Grass_Material
s off
f 104/1/1 38/2/1 89/3/1
f 88/4/2 91/5/2 45/6/2
f 100/7/3 4/8/3 112/9/3
f 8/10/3 51/11/3 9/12/3
f 23/13/1 130/14/1 126/15/1
f 93/16/4 38/17/4 92/18/4
f 87/19/4 39/20/4 86/21/4
f 20/22/5 123/23/5 59/24/5
f 34/25/2 5/26/2 82/27/2
f 88/28/6 34/29/6 85/30/6
f 71/31/4 108/32/4 110/33/4
f 122/34/3 130/35/3 132/36/3
f 20/37/1 59/38/1 52/39/1
f 91/40/4 34/41/4 35/42/4
f 68/43/5 69/44/5 70/45/5
f 41/46/4 74/47/4 40/48/4
f 92/49/6 91/50/6 103/51/6
f 62/52/5 42/53/5 64/54/5
f 46/55/1 55/56/1 56/57/1
f 65/58/5 10/59/5 120/60/5
f 46/61/5 108/62/5 37/63/5
f 9/64/5 100/65/5 8/66/5
f 72/67/5 16/68/5 126/69/5
f 73/70/5 40/71/5 74/72/5
f 124/73/5 18/74/5 125/75/5
f 119/76/5 107/77/5 15/78/5
f 107/79/3 52/80/3 15/81/3
f 79/82/3 127/83/3 129/84/3
f 10/85/1 106/86/1 9/87/1
f 7/88/2 3/89/2 98/90/2
f 72/91/3 12/92/3 11/93/3
f 96/94/3 7/95/3 98/96/3
f 87/97/6 84/98/6 31/99/6
f 76/100/6 29/101/6 128/102/6
f 32/103/4 84/98/4 26/104/4
f 131/105/4 29/106/4 30/107/4
f 115/108/6 101/109/6 81/110/6
f 27/111/5 108/112/5 63/113/5
f 10/114/3 119/115/3 120/116/3
f 27/117/4 53/118/4 25/119/4
f 5/120/3 6/121/3 58/122/3
f 111/123/1 108/124/1 109/125/1
f 131/126/6 21/127/6 23/128/6
f 103/129/1 81/130/1 101/131/1
f 55/132/5 53/133/5 14/134/5
f 8/135/1 99/136/1 50/137/1
f 90/138/3 121/139/3 17/140/3
f 6/141/2 1/142/2 58/143/2
f 90/144/1 116/145/1 117/146/1
f 130/147/6 79/148/6 129/149/6
f 79/150/1 78/151/1 75/152/1
f 47/153/1 39/154/1 114/155/1
f 93/156/1 84/157/1 86/158/1
f 108/159/1 53/160/1 105/161/1
f 1/162/5 5/163/5 58/164/5
f 49/165/6 39/166/6 80/167/6
f 47/168/6 38/169/6 86/170/6
f 7/171/6 95/172/6 2/173/6
f 44/174/2 62/175/2 64/176/2
f 122/177/6 24/178/6 22/179/6
f 71/180/5 111/181/5 48/182/5
f 24/183/4 21/184/4 22/185/4
f 73/186/4 69/187/4 28/188/4
f 116/189/3 78/190/3 83/191/3
f 62/192/4 33/193/4 61/194/4
f 16/195/3 124/196/3 126/197/3
f 121/198/6 116/199/6 83/200/6
f 68/201/4 20/202/4 67/203/4
f 116/204/1 112/205/1 113/206/1
f 46/207/4 64/208/4 89/209/4
f 103/210/3 116/211/3 118/212/3
f 108/213/4 55/214/4 37/215/4
f 127/216/6 12/217/6 13/218/6
f 107/219/1 51/220/1 14/221/1
f 18/222/3 123/223/3 125/224/3
f 78/225/6 112/226/6 77/227/6
f 104/1/1 92/228/1 38/2/1
f 88/4/2 85/229/2 91/5/2
f 112/9/3 115/230/3 81/231/3
f 81/231/3 102/232/3 3/233/3
f 2/234/3 95/235/3 57/236/3
f 81/231/3 3/233/3 2/234/3
f 65/237/3 77/238/3 112/9/3
f 112/9/3 81/231/3 100/7/3
f 81/231/3 2/234/3 1/239/3
f 2/234/3 57/236/3 1/239/3
f 1/239/3 97/240/3 99/241/3
f 100/7/3 106/242/3 4/8/3
f 1/239/3 99/241/3 100/7/3
f 81/231/3 1/239/3 100/7/3
f 4/8/3 65/237/3 112/9/3
f 8/10/3 50/243/3 51/11/3
f 73/244/1 74/245/1 76/246/1
f 128/247/1 131/248/1 23/13/1
f 73/244/1 76/246/1 128/247/1
f 68/249/1 70/250/1 73/244/1
f 123/251/1 60/252/1 68/249/1
f 126/15/1 124/253/1 125/254/1
f 125/254/1 123/251/1 68/249/1
f 68/249/1 73/244/1 23/13/1
f 73/244/1 128/247/1 23/13/1
f 23/13/1 24/255/1 132/256/1
f 126/15/1 125/254/1 68/249/1
f 13/257/1 72/258/1 126/15/1
f 130/14/1 129/259/1 127/260/1
f 127/260/1 13/257/1 126/15/1
f 126/15/1 68/249/1 23/13/1
f 23/13/1 132/256/1 130/14/1
f 130/14/1 127/260/1 126/15/1
f 93/16/4 86/261/4 38/17/4
f 87/19/4 80/262/4 39/20/4
f 20/22/5 60/263/5 123/23/5
f 34/25/2 43/264/2 42/265/2
f 61/266/2 33/267/2 94/268/2
f 34/25/2 42/265/2 61/266/2
f 96/269/2 35/270/2 34/25/2
f 57/271/2 95/272/2 82/27/2
f 82/27/2 96/269/2 34/25/2
f 34/25/2 61/266/2 5/26/2
f 61/266/2 94/268/2 5/26/2
f 5/26/2 57/271/2 82/27/2
f 88/28/6 43/273/6 34/29/6
f 71/31/4 63/274/4 108/32/4
f 122/34/3 19/275/3 130/35/3
f 121/276/1 79/150/1 19/277/1
f 121/276/1 19/277/1 122/278/1
f 32/279/1 17/280/1 122/278/1
f 17/280/1 121/276/1 122/278/1
f 80/281/1 87/282/1 31/283/1
f 22/284/1 21/285/1 30/286/1
f 32/279/1 122/278/1 22/284/1
f 31/283/1 32/279/1 22/284/1
f 30/286/1 29/287/1 41/288/1
f 31/283/1 22/284/1 30/286/1
f 48/289/1 49/290/1 41/288/1
f 49/290/1 80/281/1 41/288/1
f 80/281/1 31/283/1 30/286/1
f 80/281/1 30/286/1 41/288/1
f 27/291/1 63/292/1 71/293/1
f 52/39/1 54/294/1 20/37/1
f 54/294/1 27/291/1 20/37/1
f 120/295/1 119/296/1 15/297/1
f 40/298/1 28/299/1 69/300/1
f 48/289/1 41/288/1 40/298/1
f 71/293/1 48/289/1 40/298/1
f 69/300/1 67/301/1 20/37/1
f 71/293/1 40/298/1 69/300/1
f 77/302/1 65/303/1 11/304/1
f 65/303/1 120/295/1 11/304/1
f 12/305/1 78/151/1 77/302/1
f 66/306/1 16/307/1 11/304/1
f 11/304/1 12/305/1 77/302/1
f 27/291/1 71/293/1 69/300/1
f 27/291/1 69/300/1 20/37/1
f 59/38/1 18/308/1 66/306/1
f 66/306/1 11/304/1 120/295/1
f 66/306/1 120/295/1 15/297/1
f 59/38/1 66/306/1 15/297/1
f 59/38/1 15/297/1 52/39/1
f 91/40/4 85/309/4 34/41/4
f 68/43/5 67/310/5 69/44/5
f 41/46/4 76/311/4 74/47/4
f 90/312/6 17/313/6 32/314/6
f 26/315/6 93/316/6 92/49/6
f 90/312/6 32/314/6 26/315/6
f 103/51/6 118/317/6 90/312/6
f 3/318/6 102/319/6 103/51/6
f 35/320/6 96/321/6 98/322/6
f 98/322/6 3/318/6 103/51/6
f 103/51/6 90/312/6 26/315/6
f 92/49/6 104/323/6 45/324/6
f 103/51/6 26/315/6 92/49/6
f 35/320/6 98/322/6 91/50/6
f 98/322/6 103/51/6 91/50/6
f 92/49/6 45/324/6 91/50/6
f 62/52/5 61/325/5 42/53/5
f 46/55/1 37/326/1 55/56/1
f 65/58/5 4/327/5 10/59/5
f 46/61/5 109/328/5 108/62/5
f 9/64/5 106/329/5 100/65/5
f 72/67/5 11/330/5 16/68/5
f 73/70/5 28/331/5 40/71/5
f 124/73/5 66/332/5 18/74/5
f 119/76/5 9/333/5 107/77/5
f 107/79/3 14/334/3 52/80/3
f 79/82/3 75/335/3 127/83/3
f 10/85/1 4/336/1 106/86/1
f 7/88/2 2/337/2 3/89/2
f 72/91/3 13/338/3 12/92/3
f 96/94/3 82/339/3 7/95/3
f 87/97/6 86/340/6 84/98/6
f 76/100/6 41/341/6 29/101/6
f 32/103/4 31/342/4 84/98/4
f 131/105/4 128/343/4 29/106/4
f 115/108/6 116/344/6 101/109/6
f 27/111/5 25/345/5 108/112/5
f 10/114/3 9/346/3 119/115/3
f 27/117/4 54/347/4 53/118/4
f 5/120/3 94/348/3 6/121/3
f 111/123/1 110/349/1 108/124/1
f 131/126/6 30/350/6 21/127/6
f 103/129/1 102/351/1 81/130/1
f 99/352/5 97/353/5 6/354/5
f 6/354/5 94/355/5 33/356/5
f 36/357/5 44/358/5 56/359/5
f 6/354/5 33/356/5 36/357/5
f 50/360/5 99/352/5 6/354/5
f 14/134/5 51/361/5 50/360/5
f 54/362/5 52/363/5 14/134/5
f 55/132/5 105/364/5 53/133/5
f 53/133/5 54/362/5 14/134/5
f 14/134/5 50/360/5 55/132/5
f 50/360/5 6/354/5 55/132/5
f 6/354/5 36/357/5 55/132/5
f 36/357/5 56/359/5 55/132/5
f 8/135/1 100/365/1 99/136/1
f 90/138/3 117/366/3 121/139/3
f 6/141/2 97/367/2 1/142/2
f 90/144/1 118/368/1 116/145/1
f 130/147/6 19/369/6 79/148/6
f 79/150/1 121/276/1 83/370/1
f 78/151/1 12/305/1 75/152/1
f 79/150/1 83/370/1 78/151/1
f 47/153/1 86/371/1 39/154/1
f 93/156/1 26/372/1 84/157/1
f 108/159/1 25/373/1 53/160/1
f 1/162/5 57/374/5 5/163/5
f 49/165/6 114/375/6 39/166/6
f 47/168/6 89/376/6 38/169/6
f 7/171/6 82/377/6 95/172/6
f 44/174/2 36/378/2 62/175/2
f 122/177/6 132/379/6 24/178/6
f 71/180/5 110/380/5 111/181/5
f 24/183/4 23/381/4 21/184/4
f 73/186/4 70/382/4 69/187/4
f 116/189/3 113/383/3 78/190/3
f 62/192/4 36/384/4 33/193/4
f 16/195/3 66/385/3 124/196/3
f 121/198/6 117/386/6 116/199/6
f 68/201/4 60/387/4 20/202/4
f 116/204/1 115/388/1 112/205/1
f 114/389/4 49/390/4 48/391/4
f 111/392/4 109/393/4 46/207/4
f 114/389/4 48/391/4 111/392/4
f 89/209/4 47/394/4 114/389/4
f 45/395/4 104/396/4 89/209/4
f 42/397/4 43/398/4 88/399/4
f 88/399/4 45/395/4 89/209/4
f 89/209/4 114/389/4 111/392/4
f 46/207/4 56/400/4 44/401/4
f 89/209/4 111/392/4 46/207/4
f 42/397/4 88/399/4 64/208/4
f 88/399/4 89/209/4 64/208/4
f 46/207/4 44/401/4 64/208/4
f 103/210/3 101/402/3 116/211/3
f 108/213/4 105/403/4 55/214/4
f 127/216/6 75/404/6 12/217/6
f 107/219/1 9/405/1 51/220/1
f 18/222/3 59/406/3 123/223/3
f 78/225/6 113/407/6 112/226/6
