# Blender v3.6.10 OBJ File: ''
# www.blender.org
mtllib Ground.mtl
o Ground_Untitled
v -1.000000 0.100000 -1.100000
v -0.900000 0.100000 1.000000
v -0.900000 0.100000 0.900000
v 1.000000 0.000000 1.000000
v 1.000000 0.100000 0.900000
v 1.000000 0.100000 -1.100000
v 1.100000 0.000000 0.900000
v 1.100000 -0.000000 -1.000000
v 1.100000 0.100000 1.000000
v 1.100000 0.100000 -1.000000
v 1.100000 2.100000 1.000000
v -0.900000 0.000000 1.000000
v 1.000000 0.100000 1.000000
v -1.000000 0.100000 0.900000
v -1.000000 0.100000 -1.000000
v -0.900000 0.100000 -1.000000
v 1.000000 0.100000 -1.000000
v -1.000000 2.100000 -1.100000
v 1.000000 -0.000000 -1.100000
v 1.100000 2.100000 -1.100000
v -1.000000 0.000000 0.900000
v -0.900000 0.000000 0.900000
v 1.000000 0.000000 0.900000
v -1.000000 -0.000000 -1.000000
v -0.900000 -0.000000 -1.000000
v 1.000000 -0.000000 -1.000000
v -0.900000 -0.000000 -1.100000
v -1.000000 0.100000 1.000000
v 1.100000 0.100000 0.900000
v -0.900000 0.100000 -1.100000
v 1.100000 0.100000 -1.100000
v -1.000000 2.100000 1.000000
vt 0.656250 0.093750
vt 0.671875 0.078125
vt 0.671875 0.093750
vt 0.671875 0.046875
vt 0.656250 0.031250
vt 0.671875 0.031250
vt 0.312500 0.671875
vt 0.328125 0.984375
vt 0.015625 0.671875
vt 0.343750 0.671875
vt 0.640625 0.671875
vt 0.640625 0.968750
vt 0.671875 0.031250
vt 0.656250 0.015625
vt 0.671875 0.015625
vt 0.671875 0.062500
vt 0.656250 0.046875
vt 0.671875 0.046875
vt 0.671875 0.062500
vt 0.656250 0.078125
vt 0.656250 0.062500
vt 0.640625 0.015625
vt 0.343750 0.015625
vt 0.328125 0.328125
vt 0.671875 0.140625
vt 0.656250 0.125000
vt 0.656250 0.140625
vt 0.015625 0.640625
vt 0.015625 0.343750
vt 0.328125 0.328125
vt 0.671875 0.093750
vt 0.656250 0.109375
vt 0.656250 0.093750
vt 0.656250 0.156250
vt 0.671875 0.171875
vt 0.671875 0.156250
vt 0.656250 0.156250
vt 0.671875 0.140625
vt 0.671875 0.156250
vt 0.671875 0.187500
vt 0.656250 0.171875
vt 0.656250 0.187500
vt 0.015625 0.015625
vt 0.015625 0.312500
vt 0.328125 0.328125
vt 0.656250 0.109375
vt 0.671875 0.125000
vt 0.671875 0.109375
vt 0.328125 0.656250
vt 0.656250 0.328125
vt 0.671875 0.015625
vt 0.656250 -0.000000
vt 0.671875 -0.000000
vt 0.656250 0.078125
vt 0.656250 0.046875
vt 0.328125 0.671875
vt -0.000000 0.984375
vt -0.000000 0.671875
vt 0.015625 0.656250
vt 0.312500 0.656250
vt 0.640625 0.984375
vt 0.343750 0.984375
vt 0.343750 0.968750
vt 0.328125 0.968750
vt 0.328125 0.671875
vt 0.343750 0.656250
vt 0.640625 0.656250
vt 0.656250 0.671875
vt 0.656250 0.968750
vt 0.656250 0.031250
vt 0.656250 0.062500
vt 0.671875 0.078125
vt 0.656250 0.015625
vt 0.640625 0.000000
vt 0.343750 0.000000
vt 0.328125 0.015625
vt 0.671875 0.125000
vt 0.328125 0.656250
vt 0.015625 0.656250
vt 0.000000 0.640625
vt 0.000000 0.343750
vt 0.015625 0.328125
vt 0.671875 0.109375
vt 0.656250 0.171875
vt 0.656250 0.140625
vt 0.671875 0.171875
vt 0.328125 -0.000000
vt 0.015625 -0.000000
vt 0.000000 0.015625
vt 0.000000 0.312500
vt 0.015625 0.328125
vt 0.656250 0.125000
vt 0.656250 0.656250
vt 0.656250 0.015625
vn 0.0000 0.0000 1.0000
vn 0.0000 -1.0000 0.0000
vn 1.0000 0.0000 0.0000
vn 0.0000 -0.0000 -1.0000
vn -1.0000 0.0000 0.0000
vn 0.0000 1.0000 0.0000
usemtl Ground_Material.001
s off
f 5/1/1 7/2/1 29/3/1
f 10/4/2 6/5/2 31/6/2
f 13/7/1 11/8/1 2/9/1
f 25/10/2 26/11/2 23/12/2
f 16/13/2 1/14/2 30/15/2
f 9/16/2 5/17/2 29/18/2
f 6/19/3 26/20/3 19/21/3
f 6/22/4 30/23/4 18/24/4
f 16/25/4 24/26/4 15/27/4
f 29/28/3 10/29/3 20/30/3
f 5/31/3 4/32/3 23/33/3
f 27/34/5 16/35/5 30/36/5
f 14/37/1 22/38/1 3/39/1
f 10/40/4 26/41/4 17/42/4
f 15/43/5 14/44/5 32/45/5
f 22/46/5 2/47/5 3/48/5
f 32/49/6 20/50/6 18/24/6
f 2/51/2 14/52/2 3/53/2
f 5/1/1 23/54/1 7/2/1
f 10/4/2 17/55/2 6/5/2
f 13/7/1 9/56/1 11/8/1
f 11/8/1 32/57/1 2/9/1
f 32/57/1 28/58/1 2/9/1
f 2/9/1 12/59/1 4/60/1
f 2/9/1 4/60/1 13/7/1
f 4/61/2 12/62/2 22/63/2
f 22/63/2 21/64/2 24/65/2
f 25/10/2 27/66/2 19/67/2
f 22/63/2 24/65/2 25/10/2
f 23/12/2 4/61/2 22/63/2
f 8/68/2 7/69/2 23/12/2
f 25/10/2 19/67/2 26/11/2
f 26/11/2 8/68/2 23/12/2
f 23/12/2 22/63/2 25/10/2
f 16/13/2 15/70/2 1/14/2
f 9/16/2 13/71/2 5/17/2
f 6/19/3 17/72/3 26/20/3
f 18/24/4 20/50/4 6/22/4
f 20/50/4 31/73/4 6/22/4
f 6/22/4 19/74/4 27/75/4
f 30/23/4 1/76/4 18/24/4
f 6/22/4 27/75/4 30/23/4
f 16/25/4 25/77/4 24/26/4
f 20/30/3 11/78/3 29/28/3
f 11/78/3 9/79/3 29/28/3
f 29/28/3 7/80/3 8/81/3
f 10/29/3 31/82/3 20/30/3
f 29/28/3 8/81/3 10/29/3
f 5/31/3 13/83/3 4/32/3
f 27/34/5 25/84/5 16/35/5
f 14/37/1 21/85/1 22/38/1
f 10/40/4 8/86/4 26/41/4
f 32/45/5 18/87/5 15/43/5
f 18/87/5 1/88/5 15/43/5
f 15/43/5 24/89/5 21/90/5
f 14/44/5 28/91/5 32/45/5
f 15/43/5 21/90/5 14/44/5
f 22/46/5 12/92/5 2/47/5
f 32/49/6 11/93/6 20/50/6
f 2/51/2 28/94/2 14/52/2
