# Blender 3.6.11
# www.blender.org
mtllib ground_small.mtl
o Ground_Untitled
v -0.476190 0.047619 -0.523809
v -0.428571 0.047619 0.476190
v -0.428571 0.047619 0.428571
v 0.476190 0.000000 0.476190
v 0.476190 0.047619 0.428571
v 0.476190 0.047619 -0.523809
v 0.523809 0.000000 0.428571
v 0.523809 -0.000000 -0.476190
v 0.523809 0.047619 0.476190
v 0.523809 0.047619 -0.476190
v 0.523809 0.999999 0.476190
v -0.428571 0.000000 0.476190
v 0.476190 0.047619 0.476190
v -0.476190 0.047619 0.428571
v -0.476190 0.047619 -0.476190
v -0.428571 0.047619 -0.476190
v 0.476190 0.047619 -0.476190
v -0.476190 0.999999 -0.523809
v 0.476190 -0.000000 -0.523809
v 0.523809 0.999999 -0.523809
v -0.476190 0.000000 0.428571
v -0.428571 0.000000 0.428571
v 0.476190 0.000000 0.428571
v -0.476190 -0.000000 -0.476190
v -0.428571 -0.000000 -0.476190
v 0.476190 -0.000000 -0.476190
v -0.428571 -0.000000 -0.523809
v -0.476190 0.047619 0.476190
v 0.523809 0.047619 0.428571
v -0.428571 0.047619 -0.523809
v 0.523809 0.047619 -0.523809
v -0.476190 0.999999 0.476190
vn -0.0000 -0.0000 1.0000
vn -0.0000 -1.0000 -0.0000
vn 1.0000 -0.0000 -0.0000
vn -0.0000 -0.0000 -1.0000
vn -1.0000 -0.0000 -0.0000
vn -0.0000 1.0000 -0.0000
vt 0.656250 0.093750
vt 0.671875 0.078125
vt 0.671875 0.093750
vt 0.671875 0.046875
vt 0.656250 0.031250
vt 0.671875 0.031250
vt 0.312500 0.671875
vt 0.328125 0.984375
vt 0.015625 0.671875
vt 0.343750 0.671875
vt 0.640625 0.671875
vt 0.640625 0.968750
vt 0.656250 0.015625
vt 0.671875 0.015625
vt 0.671875 0.062500
vt 0.656250 0.046875
vt 0.656250 0.078125
vt 0.656250 0.062500
vt 0.640625 0.015625
vt 0.343750 0.015625
vt 0.328125 0.328125
vt 0.671875 0.140625
vt 0.656250 0.125000
vt 0.656250 0.140625
vt 0.015625 0.640625
vt 0.015625 0.343750
vt 0.656250 0.109375
vt 0.656250 0.156250
vt 0.671875 0.171875
vt 0.671875 0.156250
vt 0.671875 0.187500
vt 0.656250 0.171875
vt 0.656250 0.187500
vt 0.015625 0.015625
vt 0.015625 0.312500
vt 0.671875 0.125000
vt 0.671875 0.109375
vt 0.328125 0.656250
vt 0.656250 0.328125
vt 0.656250 -0.000000
vt 0.671875 -0.000000
vt 0.328125 0.671875
vt -0.000000 0.984375
vt -0.000000 0.671875
vt 0.015625 0.656250
vt 0.312500 0.656250
vt 0.640625 0.984375
vt 0.343750 0.984375
vt 0.343750 0.968750
vt 0.328125 0.968750
vt 0.343750 0.656250
vt 0.640625 0.656250
vt 0.656250 0.671875
vt 0.656250 0.968750
vt 0.640625 0.000000
vt 0.343750 0.000000
vt 0.328125 0.015625
vt 0.000000 0.640625
vt 0.000000 0.343750
vt 0.015625 0.328125
vt 0.328125 -0.000000
vt 0.015625 -0.000000
vt 0.000000 0.015625
vt 0.000000 0.312500
vt 0.656250 0.656250
s 0
usemtl Ground_Material.003
f 5/1/1 7/2/1 29/3/1
f 10/4/2 6/5/2 31/6/2
f 13/7/1 11/8/1 2/9/1
f 25/10/2 26/11/2 23/12/2
f 16/6/2 1/13/2 30/14/2
f 9/15/2 5/16/2 29/4/2
f 6/15/3 26/17/3 19/18/3
f 6/19/4 30/20/4 18/21/4
f 16/22/4 24/23/4 15/24/4
f 29/25/3 10/26/3 20/21/3
f 5/3/3 4/27/3 23/1/3
f 27/28/5 16/29/5 30/30/5
f 14/28/1 22/22/1 3/30/1
f 10/31/4 26/32/4 17/33/4
f 15/34/5 14/35/5 32/21/5
f 22/27/5 2/36/5 3/37/5
f 32/38/6 20/39/6 18/21/6
f 2/14/2 14/40/2 3/41/2
f 5/1/1 23/17/1 7/2/1
f 10/4/2 17/16/2 6/5/2
f 13/7/1 9/42/1 11/8/1
f 11/8/1 32/43/1 2/9/1
f 32/43/1 28/44/1 2/9/1
f 2/9/1 12/45/1 4/46/1
f 2/9/1 4/46/1 13/7/1
f 4/47/2 12/48/2 22/49/2
f 22/49/2 21/50/2 24/42/2
f 25/10/2 27/51/2 19/52/2
f 22/49/2 24/42/2 25/10/2
f 23/12/2 4/47/2 22/49/2
f 8/53/2 7/54/2 23/12/2
f 25/10/2 19/52/2 26/11/2
f 26/11/2 8/53/2 23/12/2
f 23/12/2 22/49/2 25/10/2
f 16/6/2 15/5/2 1/13/2
f 9/15/2 13/18/2 5/16/2
f 6/15/3 17/2/3 26/17/3
f 18/21/4 20/39/4 6/19/4
f 20/39/4 31/13/4 6/19/4
f 6/19/4 19/55/4 27/56/4
f 30/20/4 1/57/4 18/21/4
f 6/19/4 27/56/4 30/20/4
f 16/22/4 25/36/4 24/23/4
f 20/21/3 11/38/3 29/25/3
f 11/38/3 9/45/3 29/25/3
f 29/25/3 7/58/3 8/59/3
f 10/26/3 31/60/3 20/21/3
f 29/25/3 8/59/3 10/26/3
f 5/3/3 13/37/3 4/27/3
f 27/28/5 25/32/5 16/29/5
f 14/28/1 21/24/1 22/22/1
f 10/31/4 8/29/4 26/32/4
f 32/21/5 18/61/5 15/34/5
f 18/61/5 1/62/5 15/34/5
f 15/34/5 24/63/5 21/64/5
f 14/35/5 28/60/5 32/21/5
f 15/34/5 21/64/5 14/35/5
f 22/27/5 12/23/5 2/36/5
f 32/38/6 11/65/6 20/39/6
f 2/14/2 28/13/2 14/40/2
