# Blender v3.6.10 OBJ File: ''
# www.blender.org
mtllib Ground.mtl
o Ground_Untitled.004
v -1.000000 0.200000 1.000000
v -1.000000 1.900000 1.000000
v -1.000000 1.900000 0.900000
v -1.000000 2.000000 0.700000
v -1.000000 2.000000 -0.800000
v -1.000000 2.000000 -1.000000
v -1.000000 2.100000 0.700000
v -1.000000 2.100000 -0.800000
v -0.900000 0.000000 0.900000
v -0.900000 2.000000 0.900000
v -0.900000 2.000000 0.800000
v -0.900000 2.000000 0.700000
v -0.900000 2.000000 -0.900000
v -0.900000 2.000000 -1.000000
v -0.800000 2.000000 0.900000
v -0.800000 2.000000 0.800000
v -0.800000 2.100000 -0.900000
v 0.800000 2.100000 1.000000
v 0.800000 2.100000 -1.100000
v 0.900000 2.000000 0.900000
v 0.900000 2.000000 -1.000000
v 1.000000 0.200000 0.900000
v 1.000000 0.200000 -1.000000
v 1.000000 0.200000 -1.100000
v 1.000000 1.900000 -1.000000
v 1.100000 1.900000 -1.000000
v 1.100000 1.900000 -1.100000
v 1.100000 2.000000 0.900000
v 1.100000 2.000000 -0.800000
v -0.900000 0.000000 1.000000
v -0.900000 0.200000 1.000000
v -0.900000 2.000000 1.000000
v -0.700000 2.100000 1.000000
v 0.800000 2.000000 1.000000
v 1.000000 0.000000 1.000000
v 1.000000 2.000000 1.000000
v 1.100000 0.200000 1.000000
v 1.100000 1.900000 1.000000
v -1.000000 0.000000 0.900000
v -1.000000 2.000000 0.900000
v -0.800000 2.100000 0.900000
v -0.700000 2.000000 0.900000
v 0.800000 2.000000 0.900000
v 0.800000 2.100000 0.900000
v 0.900000 2.100000 0.900000
v 1.000000 1.900000 0.900000
v 1.000000 2.000000 0.900000
v -0.800000 2.100000 0.800000
v 0.900000 2.000000 0.800000
v 1.000000 2.000000 0.800000
v -0.900000 2.100000 0.700000
v 1.000000 2.000000 0.700000
v 1.000000 2.100000 0.700000
v 1.100000 2.000000 0.700000
v 1.100000 2.100000 0.700000
v -0.900000 2.100000 -0.800000
v 1.000000 2.000000 -0.800000
v 0.900000 2.000000 -0.900000
v 1.000000 2.000000 -0.900000
v -0.800000 2.000000 -1.000000
v -0.800000 2.100000 -1.000000
v -0.700000 2.000000 -1.000000
v -0.700000 2.100000 -1.000000
v 0.800000 2.100000 -1.000000
v 1.000000 -0.000000 -1.000000
v 1.100000 0.200000 -1.000000
v 1.100000 2.000000 -1.000000
v -1.000000 0.200000 -1.100000
v -0.900000 0.200000 -1.100000
v -0.900000 1.900000 -1.100000
v -0.900000 2.000000 -1.100000
v -0.700000 2.000000 -1.100000
v 0.800000 2.000000 -1.100000
v 1.000000 -0.000000 -1.100000
v 1.100000 0.200000 -1.100000
v 1.000000 0.000000 0.900000
v 1.100000 0.000000 0.900000
v -1.000000 -0.000000 -1.000000
v -0.900000 -0.000000 -1.000000
v 1.100000 -0.000000 -1.000000
v -0.900000 -0.000000 -1.100000
v 1.000000 0.200000 1.000000
v -1.000000 0.200000 0.900000
v -0.900000 0.200000 0.900000
v 1.100000 0.200000 0.900000
v -1.000000 0.200000 -1.000000
v -0.900000 0.200000 -1.000000
v -0.900000 1.900000 1.000000
v 1.000000 1.900000 1.000000
v -0.900000 1.900000 0.900000
v 1.100000 1.900000 0.900000
v -1.000000 1.900000 -1.000000
v -0.900000 1.900000 -1.000000
v -1.000000 1.900000 -1.100000
v 1.000000 1.900000 -1.100000
v -0.700000 2.000000 1.000000
v -0.900000 2.000000 -0.800000
v -0.800000 2.000000 -0.900000
v 0.800000 2.000000 -1.000000
v 1.000000 2.000000 -1.000000
v 1.000000 2.000000 -1.100000
v -0.700000 2.100000 0.900000
v -0.900000 2.100000 0.800000
v 0.900000 2.100000 0.800000
v 1.000000 2.100000 0.800000
v 1.000000 2.100000 -0.800000
v 1.100000 2.100000 -0.800000
v -0.900000 2.100000 -0.900000
v 0.900000 2.100000 -0.900000
v 1.000000 2.100000 -0.900000
v 0.900000 2.100000 -1.000000
v -0.700000 2.100000 -1.100000
vt 0.671875 0.437500
vt 0.656250 0.453125
vt 0.671875 0.453125
vt 0.687500 0.359375
vt 0.656250 0.375000
vt 0.656250 0.359375
vt 0.656250 0.343750
vt 0.687500 0.359375
vt 0.687500 0.343750
vt 0.656250 0.250000
vt 0.671875 0.218750
vt 0.671875 0.250000
vt 0.671875 0.812500
vt 0.656250 0.796875
vt 0.656250 0.812500
vt 0.671875 0.656250
vt 0.656250 0.671875
vt 0.656250 0.656250
vt 0.656250 0.703125
vt 0.671875 0.687500
vt 0.671875 0.703125
vt 0.656250 0.500000
vt 0.671875 0.484375
vt 0.671875 0.500000
vt 0.718750 0.015625
vt 0.703125 0.000000
vt 0.703125 0.015625
vt 0.671875 0.531250
vt 0.656250 0.515625
vt 0.656250 0.531250
vt 0.671875 0.781250
vt 0.656250 0.765625
vt 0.656250 0.781250
vt 0.656250 0.718750
vt 0.671875 0.703125
vt 0.671875 0.718750
vt 0.656250 0.578125
vt 0.671875 0.593750
vt 0.671875 0.578125
vt 0.312500 0.671875
vt 0.015625 0.968750
vt 0.015625 0.671875
vt 0.687500 0.171875
vt 0.687500 0.156250
vt 0.671875 0.171875
vt 0.671875 0.312500
vt 0.656250 0.281250
vt 0.656250 0.312500
vt 0.671875 0.453125
vt 0.656250 0.468750
vt 0.671875 0.468750
vt 0.671875 0.343750
vt 0.656250 0.312500
vt 0.656250 0.343750
vt 0.671875 0.078125
vt 0.687500 0.078125
vt 0.671875 0.062500
vt 0.656250 0.187500
vt 0.687500 0.203125
vt 0.687500 0.187500
vt 0.671875 0.546875
vt 0.656250 0.562500
vt 0.656250 0.546875
vt 0.671875 0.390625
vt 0.656250 0.406250
vt 0.656250 0.390625
vt 0.656250 0.750000
vt 0.671875 0.734375
vt 0.671875 0.750000
vt 0.656250 0.484375
vt 0.671875 0.468750
vt 0.671875 0.484375
vt 0.671875 0.515625
vt 0.656250 0.500000
vt 0.656250 0.515625
vt 0.656250 0.281250
vt 0.671875 0.250000
vt 0.671875 0.281250
vt 0.656250 0.984375
vt 0.671875 0.968750
vt 0.671875 0.984375
vt 0.031250 0.343750
vt 0.296875 0.328125
vt 0.296875 0.343750
vt 0.343750 0.031250
vt 0.343750 0.000000
vt 0.640625 0.031250
vt 0.671875 0.875000
vt 0.656250 0.859375
vt 0.671875 0.859375
vt 0.671875 0.625000
vt 0.656250 0.640625
vt 0.656250 0.625000
vt 0.671875 0.437500
vt 0.656250 0.421875
vt 0.671875 0.421875
vt 0.671875 0.859375
vt 0.656250 0.843750
vt 0.671875 0.843750
vt 0.671875 0.953125
vt 0.656250 0.968750
vt 0.656250 0.953125
vt 0.671875 0.921875
vt 0.656250 0.937500
vt 0.656250 0.921875
vt 0.671875 0.875000
vt 0.656250 0.890625
vt 0.671875 0.890625
vt 0.671875 0.015625
vt 0.671875 0.031250
vt 0.687500 0.015625
vt 0.671875 0.421875
vt 0.656250 0.406250
vt 0.671875 0.406250
vt 0.671875 0.671875
vt 0.656250 0.687500
vt 0.656250 0.671875
vt 0.312500 0.046875
vt 0.296875 0.015625
vt 0.031250 0.015625
vt 0.671875 0.843750
vt 0.656250 0.828125
vt 0.656250 0.843750
vt 0.656250 0.375000
vt 0.671875 0.390625
vt 0.671875 0.375000
vt 0.656250 0.765625
vt 0.671875 0.750000
vt 0.671875 0.765625
vt 0.671875 0.796875
vt 0.656250 0.781250
vt 0.656250 0.796875
vt 0.656250 0.593750
vt 0.671875 0.609375
vt 0.671875 0.593750
vt 0.671875 0.640625
vt 0.656250 0.656250
vt 0.656250 0.640625
vt 0.656250 0.906250
vt 0.671875 0.921875
vt 0.671875 0.906250
vt 0.609375 0.640625
vt 0.640625 0.625000
vt 0.640625 0.359375
vt 0.656250 0.609375
vt 0.671875 0.625000
vt 0.671875 0.609375
vt 0.656250 0.562500
vt 0.671875 0.578125
vt 0.671875 0.562500
vt 0.687500 0.203125
vt 0.656250 0.218750
vt 0.656250 0.203125
vt 0.671875 0.828125
vt 0.656250 0.812500
vt 0.656250 0.828125
vt 0.671875 0.109375
vt 0.687500 0.125000
vt 0.687500 0.109375
vt 0.656250 0.937500
vt 0.671875 0.953125
vt 0.671875 0.937500
vt 0.671875 0.890625
vt 0.656250 0.906250
vt 0.671875 0.906250
vt 0.625000 0.953125
vt 0.640625 0.937500
vt 0.640625 0.703125
vt 0.656250 0.734375
vt 0.671875 0.718750
vt 0.671875 0.734375
vt 0.656250 0.531250
vt 0.671875 0.546875
vt 0.671875 0.531250
vt 0.656250 0.437500
vt 0.687500 0.375000
vt 0.656250 0.359375
vt 0.656250 0.218750
vt 0.671875 0.796875
vt 0.671875 0.671875
vt 0.656250 0.687500
vt 0.656250 0.484375
vt 0.718750 0.000000
vt 0.671875 0.515625
vt 0.671875 0.765625
vt 0.656250 0.703125
vt 0.656250 0.593750
vt 0.328125 0.671875
vt 0.328125 0.968750
vt 0.312500 0.968750
vt 0.312500 0.984375
vt 0.015625 0.984375
vt 0.015625 0.656250
vt 0.312500 0.656250
vt -0.000000 0.968750
vt -0.000000 0.671875
vt 0.703125 0.171875
vt 0.703125 0.140625
vt 0.687500 0.140625
vt 0.671875 0.156250
vt 0.656250 0.187500
vt 0.687500 0.187500
vt 0.656250 0.171875
vt 0.671875 0.281250
vt 0.656250 0.453125
vt 0.671875 0.312500
vt 0.671875 0.093750
vt 0.703125 0.093750
vt 0.703125 0.078125
vt 0.687500 0.062500
vt 0.656250 0.046875
vt 0.656250 0.078125
vt 0.671875 0.046875
vt 0.656250 0.203125
vt 0.671875 0.562500
vt 0.671875 0.406250
vt 0.656250 0.734375
vt 0.656250 0.468750
vt 0.671875 0.500000
vt 0.656250 0.250000
vt 0.656250 0.968750
vt 0.328125 0.375000
vt 0.328125 0.609375
vt 0.312500 0.609375
vt 0.312500 0.640625
vt 0.296875 0.640625
vt 0.296875 0.656250
vt 0.031250 0.656250
vt 0.031250 0.640625
vt 0.000000 0.640625
vt 0.000000 0.343750
vt 0.312500 0.375000
vt 0.312500 0.343750
vt 0.031250 0.328125
vt 0.640625 0.296875
vt 0.640625 0.312500
vt 0.609375 0.312500
vt 0.609375 0.328125
vt 0.375000 0.328125
vt 0.375000 0.312500
vt 0.343750 0.312500
vt 0.343750 0.296875
vt 0.656250 0.031250
vt 0.656250 0.296875
vt 0.328125 0.296875
vt 0.328125 0.031250
vt 0.640625 0.000000
vt 0.656250 0.875000
vt 0.671875 0.640625
vt 0.656250 0.437500
vt 0.656250 0.859375
vt 0.671875 0.968750
vt 0.671875 0.937500
vt 0.656250 0.875000
vt 0.703125 0.000000
vt 0.671875 0.000000
vt 0.656250 0.015625
vt 0.656250 0.046875
vt 0.671875 0.046875
vt 0.687500 0.031250
vt 0.703125 0.015625
vt 0.656250 0.421875
vt 0.671875 0.687500
vt 0.031250 0.312500
vt 0.031250 0.328125
vt 0.296875 0.328125
vt 0.296875 0.312500
vt 0.312500 0.312500
vt 0.312500 0.281250
vt 0.000000 0.015625
vt 0.000000 0.312500
vt 0.296875 -0.000000
vt 0.031250 -0.000000
vt 0.328125 0.281250
vt 0.328125 0.046875
vt 0.312500 0.015625
vt 0.671875 0.828125
vt 0.656250 0.390625
vt 0.656250 0.750000
vt 0.671875 0.781250
vt 0.656250 0.609375
vt 0.671875 0.656250
vt 0.656250 0.921875
vt 0.343750 0.359375
vt 0.328125 0.359375
vt 0.328125 0.625000
vt 0.343750 0.625000
vt 0.343750 0.640625
vt 0.375000 0.640625
vt 0.640625 0.328125
vt 0.343750 0.328125
vt 0.656250 0.625000
vt 0.656250 0.359375
vt 0.375000 0.656250
vt 0.609375 0.656250
vt 0.640625 0.640625
vt 0.656250 0.625000
vt 0.656250 0.578125
vt 0.687500 0.218750
vt 0.671875 0.812500
vt 0.671875 0.125000
vt 0.687500 0.140625
vt 0.703125 0.140625
vt 0.703125 0.109375
vt 0.687500 0.093750
vt 0.656250 0.093750
vt 0.656250 0.109375
vt 0.656250 0.953125
vt 0.656250 0.890625
vt 0.328125 0.703125
vt 0.328125 0.937500
vt 0.343750 0.937500
vt 0.343750 0.953125
vt 0.359375 0.953125
vt 0.359375 0.968750
vt 0.375000 0.968750
vt 0.375000 0.984375
vt 0.609375 0.984375
vt 0.609375 0.968750
vt 0.625000 0.968750
vt 0.359375 0.687500
vt 0.343750 0.703125
vt 0.343750 0.687500
vt 0.375000 0.671875
vt 0.359375 0.671875
vt 0.625000 0.687500
vt 0.625000 0.671875
vt 0.609375 0.671875
vt 0.640625 0.687500
vt 0.640625 0.953125
vt 0.656250 0.937500
vt 0.656250 0.703125
vt 0.656250 0.718750
vt 0.656250 0.546875
vn 0.0000 1.0000 0.0000
vn 1.0000 0.0000 0.0000
vn -1.0000 0.0000 0.0000
vn 0.0000 0.0000 1.0000
vn 0.0000 0.0000 -1.0000
vn 0.0000 -1.0000 0.0000
usemtl Ground_Material.002
s off
f 70/1/1 92/2/1 93/3/1
f 22/4/2 35/5/2 76/6/2
f 9/7/3 31/8/3 84/9/3
f 83/10/4 9/11/4 84/12/4
f 17/13/5 13/14/5 108/15/5
f 47/16/2 89/17/2 46/18/2
f 41/19/4 42/20/4 102/21/4
f 47/22/4 91/23/4 28/24/4
f 111/25/5 99/26/5 64/27/5
f 67/28/5 25/29/5 100/30/5
f 56/31/5 5/32/5 8/33/5
f 103/34/4 16/35/4 48/36/4
f 12/37/3 103/38/3 51/39/3
f 65/40/6 9/41/6 79/42/6
f 47/43/1 50/44/1 20/45/1
f 87/46/5 78/47/5 86/48/5
f 27/49/1 25/50/1 26/51/1
f 66/52/5 65/53/5 23/54/5
f 10/55/1 15/56/1 11/57/1
f 81/58/3 87/59/3 69/60/3
f 19/61/2 99/62/2 73/63/2
f 101/64/2 25/65/2 95/66/2
f 7/67/4 12/68/4 51/69/4
f 40/70/4 90/71/4 10/72/4
f 14/73/5 92/74/5 6/75/5
f 22/76/4 77/77/4 85/78/4
f 44/79/4 20/80/4 45/81/4
f 66/82/2 27/83/2 26/84/2
f 31/85/4 30/86/4 82/87/4
f 37/88/6 22/89/6 85/90/6
f 104/91/2 20/92/2 49/93/2
f 66/94/6 24/95/6 75/96/6
f 31/97/6 83/98/6 84/99/6
f 44/100/2 34/101/2 43/102/2
f 110/103/2 57/104/2 59/105/2
f 90/106/1 2/107/1 88/108/1
f 14/109/1 13/110/1 60/111/1
f 87/112/6 68/113/6 69/114/6
f 53/115/2 50/116/2 52/117/2
f 5/118/3 92/119/3 86/120/3
f 63/121/5 60/122/5 61/123/5
f 70/124/3 14/125/3 71/126/3
f 53/127/4 54/128/4 55/129/4
f 107/130/5 57/131/5 106/132/5
f 16/133/3 41/134/3 48/135/3
f 111/136/2 58/137/2 21/138/2
f 13/139/3 56/140/3 108/141/3
f 73/142/5 95/143/5 24/144/5
f 60/145/3 17/146/3 61/147/3
f 90/148/3 32/149/3 10/150/3
f 24/151/2 65/152/2 74/153/2
f 110/154/5 58/155/5 109/156/5
f 21/157/1 59/158/1 100/159/1
f 42/160/3 33/161/3 102/162/3
f 91/163/1 89/164/1 38/165/1
f 104/166/1 53/167/1 106/168/1
f 104/169/4 50/170/4 105/171/4
f 72/172/3 63/173/3 112/174/3
f 70/1/1 94/175/1 92/2/1
f 22/4/2 82/176/2 35/5/2
f 9/7/3 30/177/3 31/8/3
f 83/10/4 39/178/4 9/11/4
f 17/13/5 98/179/5 13/14/5
f 47/16/2 36/180/2 89/17/2
f 41/19/4 15/181/4 42/20/4
f 47/22/4 46/182/4 91/23/4
f 111/25/5 21/183/5 99/26/5
f 67/28/5 26/184/5 25/29/5
f 56/31/5 97/185/5 5/32/5
f 103/34/4 11/186/4 16/35/4
f 12/37/3 11/187/3 103/38/3
f 65/40/6 80/188/6 77/189/6
f 76/190/6 35/191/6 30/192/6
f 65/40/6 77/189/6 76/190/6
f 81/193/6 74/194/6 65/40/6
f 39/195/6 78/196/6 79/42/6
f 79/42/6 81/193/6 65/40/6
f 65/40/6 76/190/6 9/41/6
f 76/190/6 30/192/6 9/41/6
f 9/41/6 39/195/6 79/42/6
f 28/197/1 54/198/1 50/44/1
f 54/198/1 52/199/1 50/44/1
f 50/44/1 49/200/1 20/45/1
f 34/201/1 36/202/1 20/45/1
f 36/202/1 47/43/1 20/45/1
f 47/43/1 28/197/1 50/44/1
f 20/45/1 43/203/1 34/201/1
f 87/46/5 79/204/5 78/47/5
f 27/49/1 95/205/1 25/50/1
f 66/52/5 80/206/5 65/53/5
f 32/207/1 96/208/1 15/56/1
f 96/208/1 42/209/1 15/56/1
f 15/56/1 16/210/1 11/57/1
f 4/211/1 40/212/1 11/57/1
f 40/212/1 10/55/1 11/57/1
f 10/55/1 32/207/1 15/56/1
f 11/57/1 12/213/1 4/211/1
f 81/58/3 79/214/3 87/59/3
f 19/61/2 64/215/2 99/62/2
f 101/64/2 100/216/2 25/65/2
f 7/67/4 4/217/4 12/68/4
f 40/70/4 3/218/4 90/71/4
f 14/73/5 93/219/5 92/74/5
f 22/76/4 76/220/4 77/77/4
f 44/79/4 43/221/4 20/80/4
f 107/222/2 55/223/2 54/224/2
f 54/224/2 28/225/2 91/226/2
f 91/226/2 38/227/2 37/228/2
f 85/229/2 77/230/2 80/231/2
f 91/226/2 37/228/2 85/229/2
f 107/222/2 54/224/2 29/232/2
f 54/224/2 91/226/2 85/229/2
f 29/232/2 54/224/2 85/229/2
f 26/84/2 67/233/2 29/232/2
f 85/229/2 80/231/2 66/82/2
f 66/82/2 75/234/2 27/83/2
f 85/229/2 66/82/2 29/232/2
f 26/84/2 29/232/2 66/82/2
f 89/235/4 36/236/4 34/237/4
f 34/237/4 18/238/4 33/239/4
f 96/240/4 32/241/4 88/242/4
f 34/237/4 33/239/4 96/240/4
f 37/243/4 38/244/4 89/235/4
f 89/235/4 34/237/4 82/87/4
f 34/237/4 96/240/4 82/87/4
f 88/242/4 2/245/4 1/246/4
f 96/240/4 88/242/4 31/85/4
f 82/87/4 96/240/4 31/85/4
f 82/87/4 37/243/4 89/235/4
f 30/86/4 35/247/4 82/87/4
f 88/242/4 1/246/4 31/85/4
f 37/88/6 82/248/6 22/89/6
f 104/91/2 45/249/2 20/92/2
f 66/94/6 23/250/6 24/95/6
f 31/97/6 1/251/6 83/98/6
f 44/100/2 18/252/2 34/101/2
f 110/103/2 106/253/2 57/104/2
f 90/106/1 3/254/1 2/107/1
f 72/255/1 71/256/1 60/111/1
f 71/256/1 14/109/1 60/111/1
f 14/109/1 6/257/1 13/110/1
f 6/257/1 5/258/1 13/110/1
f 5/258/1 97/259/1 13/110/1
f 13/110/1 98/260/1 60/111/1
f 60/111/1 62/261/1 72/255/1
f 87/112/6 86/262/6 68/113/6
f 53/115/2 105/263/2 50/116/2
f 83/264/3 1/265/3 2/266/3
f 3/267/3 40/268/3 4/269/3
f 83/264/3 2/266/3 3/267/3
f 78/270/3 39/271/3 83/264/3
f 94/272/3 68/273/3 86/120/3
f 86/120/3 78/270/3 83/264/3
f 83/264/3 3/267/3 4/269/3
f 4/269/3 7/274/3 8/275/3
f 5/118/3 6/276/3 92/119/3
f 4/269/3 8/275/3 5/118/3
f 86/120/3 83/264/3 4/269/3
f 92/119/3 94/272/3 86/120/3
f 4/269/3 5/118/3 86/120/3
f 63/121/5 62/277/5 60/122/5
f 70/124/3 93/278/3 14/125/3
f 53/127/4 52/279/4 54/128/4
f 107/130/5 29/280/5 57/131/5
f 16/133/3 15/281/3 41/134/3
f 111/136/2 109/282/2 58/137/2
f 13/139/3 97/283/3 56/140/3
f 69/284/5 68/285/5 94/286/5
f 70/287/5 71/288/5 72/289/5
f 69/284/5 94/286/5 70/287/5
f 74/290/5 81/291/5 69/284/5
f 27/292/5 75/293/5 24/144/5
f 24/144/5 74/290/5 69/284/5
f 69/284/5 70/287/5 72/289/5
f 72/289/5 112/294/5 19/295/5
f 73/142/5 101/296/5 95/143/5
f 72/289/5 19/295/5 73/142/5
f 24/144/5 69/284/5 72/289/5
f 95/143/5 27/292/5 24/144/5
f 72/289/5 73/142/5 24/144/5
f 60/145/3 98/297/3 17/146/3
f 90/148/3 88/298/3 32/149/3
f 24/151/2 23/299/2 65/152/2
f 110/154/5 59/300/5 58/155/5
f 21/157/1 58/301/1 59/158/1
f 59/158/1 57/302/1 29/303/1
f 29/303/1 67/304/1 59/158/1
f 67/304/1 100/159/1 59/158/1
f 100/159/1 101/305/1 21/157/1
f 101/305/1 73/306/1 21/157/1
f 73/306/1 99/307/1 21/157/1
f 42/160/3 96/308/3 33/161/3
f 91/163/1 46/309/1 89/164/1
f 8/310/1 7/311/1 51/312/1
f 51/312/1 103/313/1 48/314/1
f 48/314/1 41/315/1 102/316/1
f 102/316/1 33/317/1 18/318/1
f 44/319/1 45/320/1 104/166/1
f 102/316/1 18/318/1 44/319/1
f 51/312/1 48/314/1 17/321/1
f 48/314/1 102/316/1 104/166/1
f 17/321/1 48/314/1 104/166/1
f 56/322/1 8/310/1 51/312/1
f 17/321/1 108/323/1 56/322/1
f 63/324/1 61/325/1 17/321/1
f 19/295/1 112/294/1 63/324/1
f 109/326/1 111/327/1 64/328/1
f 64/328/1 19/295/1 63/324/1
f 17/321/1 56/322/1 51/312/1
f 64/328/1 63/324/1 17/321/1
f 106/168/1 110/329/1 109/326/1
f 109/326/1 64/328/1 17/321/1
f 102/316/1 44/319/1 104/166/1
f 104/166/1 105/330/1 53/167/1
f 53/167/1 55/331/1 107/332/1
f 106/168/1 109/326/1 104/166/1
f 109/326/1 17/321/1 104/166/1
f 53/167/1 107/332/1 106/168/1
f 104/169/4 49/333/4 50/170/4
f 72/172/3 62/334/3 63/173/3
